M48
;DRILL file {KiCad 4.0.5-e0-6337~49~ubuntu16.04.1} date Thu Feb 23 02:24:41 2017
;FORMAT={-:-/ absolute / inch / decimal}
FMAT,2
INCH,TZ
T1C0.157
%
G90
G05
M72
T1
X0.8438Y-0.8438
X1.0312Y-1.5938
X1.125Y-2.3438
X1.3125Y-3.0938
X1.5938Y-0.8438
X1.9688Y-1.5938
X2.1562Y-2.3438
X2.3438Y-0.8438
X2.3438Y-3.8438
X2.5312Y-3.0938
X2.7188Y-1.5938
X2.9062Y-2.3438
X3.0938Y-0.8438
X3.0938Y-3.8438
X3.2812Y-3.0938
X3.4688Y-1.5938
X3.6562Y-2.3438
X3.8438Y-0.8438
X4.0312Y-3.0938
X4.0312Y-3.8438
X4.2188Y-1.5938
X4.4062Y-2.3438
X4.5938Y-0.8438
X4.7812Y-3.0938
X4.9688Y-1.5938
X5.1562Y-2.3438
X5.3438Y-0.8438
X5.5312Y-3.0938
X5.7188Y-1.5938
X5.9062Y-2.3438
X6.0938Y-0.8438
X6.0938Y-3.8438
X6.2812Y-3.0938
X6.4688Y-1.5938
X6.6562Y-2.3438
X6.8438Y-0.8438
X7.0312Y-3.0938
X7.2188Y-1.5938
X7.4062Y-2.3438
X7.5938Y-0.8438
X7.7812Y-3.0938
X7.9688Y-1.5938
X8.1562Y-2.3438
X8.1562Y-3.8438
X8.3438Y-0.8438
X8.5312Y-3.0938
X8.7188Y-1.5938
X8.9062Y-2.3438
X9.0938Y-0.8438
X9.0938Y-3.8438
X9.2812Y-3.0938
X9.4688Y-1.5938
X9.6562Y-2.3438
X9.8438Y-0.8438
X10.2188Y-1.5938
X10.3125Y-3.0938
X10.5938Y-0.8438
X10.875Y-2.3438
X11.1562Y-1.5938
X11.3438Y-0.8438
X11.3438Y-3.0938
T0
M30
