M48
;DRILL file {KiCad 4.0.6-e0-6349~53~ubuntu16.04.1} date Tue Mar 14 05:44:14 2017
;FORMAT={-:-/ absolute / metric / decimal}
FMAT,2
METRIC,TZ
T1C1.499
%
G90
G05
M71
T1
X73.621Y-98.391
X78.384Y-117.441
X79.971Y-95.851
X80.765Y-136.491
X84.734Y-114.901
X85.527Y-155.541
X87.115Y-133.951
X91.877Y-153.001
X92.671Y-98.391
X99.021Y-95.851
X102.196Y-117.441
X106.959Y-136.491
X108.546Y-114.901
X111.721Y-98.391
X111.721Y-174.591
X113.309Y-133.951
X116.484Y-155.541
X118.071Y-95.851
X118.071Y-172.051
X121.246Y-117.441
X122.834Y-153.001
X126.009Y-136.491
X127.596Y-114.901
X130.771Y-98.391
X130.771Y-174.591
X132.359Y-133.951
X135.534Y-155.541
X137.121Y-95.851
X137.121Y-172.051
X140.296Y-117.441
X141.884Y-153.001
X145.059Y-136.491
X146.646Y-114.901
X149.821Y-98.391
X151.409Y-133.951
X154.584Y-155.541
X156.171Y-95.851
X159.346Y-117.441
X160.934Y-153.001
X164.109Y-136.491
X165.696Y-114.901
X168.871Y-98.391
X170.459Y-133.951
X173.634Y-155.541
X175.221Y-95.851
X178.396Y-117.441
X179.984Y-153.001
X183.159Y-136.491
X184.746Y-114.901
X187.921Y-98.391
X189.509Y-133.951
X192.684Y-155.541
X194.271Y-95.851
X197.446Y-117.441
X199.034Y-153.001
X202.209Y-136.491
X203.796Y-114.901
X206.971Y-98.391
X206.971Y-174.591
X208.559Y-133.951
X211.734Y-155.541
X213.321Y-95.851
X213.321Y-172.051
X216.496Y-117.441
X218.084Y-153.001
X221.259Y-136.491
X222.846Y-114.901
X226.021Y-98.391
X227.609Y-133.951
X230.784Y-155.541
X232.371Y-95.851
X235.547Y-117.441
X237.134Y-153.001
X240.309Y-136.491
X241.897Y-114.901
X245.071Y-98.391
X246.659Y-133.951
X249.834Y-155.541
X251.421Y-95.851
X254.596Y-117.441
X256.184Y-153.001
X259.359Y-136.491
X260.946Y-114.901
X264.121Y-98.391
X265.709Y-133.951
X268.884Y-155.541
X268.884Y-174.591
X270.471Y-95.851
X273.646Y-117.441
X275.234Y-153.001
X275.234Y-172.051
X278.409Y-136.491
X279.996Y-114.901
X283.171Y-98.391
X284.759Y-133.951
X287.934Y-155.541
X289.521Y-95.851
X292.696Y-117.441
X292.696Y-174.591
X294.284Y-153.001
X297.459Y-136.491
X299.046Y-114.901
X299.046Y-172.051
X302.221Y-98.391
X303.809Y-133.951
X308.571Y-95.851
X311.746Y-117.441
X314.127Y-155.541
X318.096Y-114.901
X320.477Y-153.001
X321.271Y-98.391
X327.621Y-95.851
X328.415Y-136.491
X334.765Y-133.951
X335.559Y-117.441
X340.321Y-98.391
X340.321Y-155.541
X341.909Y-114.901
X346.671Y-95.851
X346.671Y-153.001
T0
M30
