M48
;DRILL file {KiCad 4.0.6-e0-6349~53~ubuntu16.04.1} date Wed Mar 15 20:11:45 2017
;FORMAT={-:-/ absolute / metric / decimal}
FMAT,2
METRIC,TZ
T1C3.988
%
G90
G05
M71
T1
X77.431Y-100.931
X82.194Y-119.981
X84.575Y-139.031
X89.337Y-158.081
X96.481Y-100.931
X106.006Y-119.981
X110.769Y-139.031
X115.531Y-100.931
X115.531Y-177.131
X120.294Y-158.081
X125.056Y-119.981
X129.819Y-139.031
X134.581Y-100.931
X134.581Y-177.131
X139.344Y-158.081
X144.106Y-119.981
X148.869Y-139.031
X153.631Y-100.931
X158.394Y-158.081
X163.156Y-119.981
X167.919Y-139.031
X172.681Y-100.931
X177.444Y-158.081
X182.206Y-119.981
X186.969Y-139.031
X191.731Y-100.931
X196.494Y-158.081
X201.256Y-119.981
X206.019Y-139.031
X210.781Y-100.931
X210.781Y-177.131
X215.544Y-158.081
X220.306Y-119.981
X225.069Y-139.031
X229.831Y-100.931
X234.594Y-158.081
X239.357Y-119.981
X244.119Y-139.031
X248.881Y-100.931
X253.644Y-158.081
X258.406Y-119.981
X263.169Y-139.031
X267.931Y-100.931
X272.694Y-158.081
X272.694Y-177.131
X277.456Y-119.981
X282.219Y-139.031
X286.981Y-100.931
X291.744Y-158.081
X296.506Y-119.981
X296.506Y-177.131
X301.269Y-139.031
X306.031Y-100.931
X315.556Y-119.981
X317.938Y-158.081
X325.081Y-100.931
X332.225Y-139.031
X339.369Y-119.981
X344.131Y-100.931
X344.131Y-158.081
T0
M30
