M48
;DRILL file {KiCad 4.0.5-e0-6337~49~ubuntu16.04.1} date Thu Feb 23 02:24:41 2017
;FORMAT={-:-/ absolute / inch / decimal}
FMAT,2
INCH,TZ
T1C0.059
T2C0.098
%
G90
G05
M72
T1
X0.6937Y-0.7438
X0.8812Y-1.4937
X0.9437Y-0.6437
X0.975Y-2.2438
X1.1312Y-1.3938
X1.1625Y-2.9937
X1.225Y-2.1438
X1.4125Y-2.8937
X1.4437Y-0.7438
X1.6937Y-0.6437
X1.8187Y-1.4937
X2.0063Y-2.2437
X2.0688Y-1.3938
X2.1938Y-0.7438
X2.1938Y-3.7437
X2.2563Y-2.1437
X2.3813Y-2.9937
X2.4438Y-0.6437
X2.4438Y-3.6437
X2.5688Y-1.4937
X2.6313Y-2.8937
X2.7563Y-2.2437
X2.8188Y-1.3938
X2.9438Y-0.7438
X2.9438Y-3.7437
X3.0063Y-2.1437
X3.1313Y-2.9937
X3.1938Y-0.6437
X3.1938Y-3.6437
X3.3188Y-1.4937
X3.3813Y-2.8937
X3.5063Y-2.2437
X3.5688Y-1.3938
X3.6938Y-0.7438
X3.7563Y-2.1437
X3.8813Y-2.9937
X3.8813Y-3.7437
X3.9438Y-0.6437
X4.0687Y-1.4937
X4.1312Y-2.8937
X4.1312Y-3.6437
X4.2562Y-2.2437
X4.3187Y-1.3938
X4.4437Y-0.7438
X4.5062Y-2.1437
X4.6312Y-2.9937
X4.6937Y-0.6437
X4.8187Y-1.4937
X4.8812Y-2.8937
X5.0062Y-2.2437
X5.0687Y-1.3938
X5.1937Y-0.7438
X5.2562Y-2.1437
X5.3812Y-2.9937
X5.4437Y-0.6437
X5.5687Y-1.4937
X5.6312Y-2.8937
X5.7562Y-2.2437
X5.8187Y-1.3938
X5.9437Y-0.7438
X5.9437Y-3.7437
X6.0062Y-2.1437
X6.1312Y-2.9937
X6.1937Y-0.6437
X6.1937Y-3.6437
X6.3187Y-1.4937
X6.3812Y-2.8937
X6.5062Y-2.2437
X6.5687Y-1.3938
X6.6937Y-0.7438
X6.7562Y-2.1437
X6.8812Y-2.9937
X6.9437Y-0.6437
X7.0688Y-1.4938
X7.1312Y-2.8937
X7.2562Y-2.2437
X7.3188Y-1.3938
X7.4437Y-0.7438
X7.5062Y-2.1437
X7.6312Y-2.9937
X7.6937Y-0.6437
X7.8187Y-1.4937
X7.8812Y-2.8937
X8.0062Y-2.2437
X8.0062Y-3.7437
X8.0687Y-1.3938
X8.1937Y-0.7438
X8.2562Y-2.1437
X8.2562Y-3.6437
X8.3812Y-2.9937
X8.4437Y-0.6437
X8.5687Y-1.4937
X8.6312Y-2.8937
X8.7562Y-2.2437
X8.8187Y-1.3938
X8.9437Y-0.7438
X8.9437Y-3.7437
X9.0062Y-2.1437
X9.1312Y-2.9937
X9.1937Y-0.6437
X9.1937Y-3.6437
X9.3187Y-1.4937
X9.3812Y-2.8937
X9.5062Y-2.2437
X9.5687Y-1.3938
X9.6937Y-0.7438
X9.7562Y-2.1437
X9.9437Y-0.6437
X10.0687Y-1.4937
X10.1625Y-2.9937
X10.3187Y-1.3938
X10.4125Y-2.8937
X10.4437Y-0.7438
X10.6937Y-0.6437
X10.725Y-2.2437
X10.975Y-2.1437
X11.0062Y-1.4937
X11.1937Y-0.7438
X11.1937Y-2.9937
X11.2562Y-1.3938
X11.4437Y-0.6437
X11.4437Y-2.8937
T2
X0.6149Y-2.7188G85X0.6976Y-2.7188
G05
X1.4587Y-1.5938G85X1.5413Y-1.5938
G05
X6.2399Y-2.3438G85X6.3226Y-2.3438
G05
X7.5524Y-3.8438G85X7.6351Y-3.8438
G05
X10.7399Y-1.5938G85X10.8226Y-1.5938
G05
X11.4899Y-2.3438G85X11.5726Y-2.3438
G05
T0
M30
