M48
;DRILL file {KiCad 4.0.6-e0-6349~53~ubuntu16.04.1} date Wed Mar 15 20:11:45 2017
;FORMAT={-:-/ absolute / metric / decimal}
FMAT,2
METRIC,TZ
T1C1.499
%
G90
G05
M71
T1
X74.891Y-106.011
X78.384Y-117.441
X80.765Y-136.491
X81.241Y-103.471
X84.734Y-114.901
X85.527Y-155.541
X87.115Y-133.951
X91.877Y-153.001
X93.941Y-106.011
X100.291Y-103.471
X102.196Y-117.441
X106.959Y-136.491
X108.546Y-114.901
X111.721Y-174.591
X112.991Y-106.011
X113.309Y-133.951
X116.484Y-155.541
X118.071Y-172.051
X119.341Y-103.471
X121.246Y-117.441
X122.834Y-153.001
X126.009Y-136.491
X127.596Y-114.901
X130.771Y-174.591
X132.041Y-106.011
X132.359Y-133.951
X135.534Y-155.541
X137.121Y-172.051
X138.391Y-103.471
X140.296Y-117.441
X141.884Y-153.001
X145.059Y-136.491
X146.646Y-114.901
X151.091Y-106.011
X151.409Y-133.951
X154.584Y-155.541
X157.441Y-103.471
X159.346Y-117.441
X160.934Y-153.001
X164.109Y-136.491
X165.696Y-114.901
X170.141Y-106.011
X170.459Y-133.951
X173.634Y-155.541
X176.491Y-103.471
X178.396Y-117.441
X179.984Y-153.001
X183.159Y-136.491
X184.746Y-114.901
X189.191Y-106.011
X189.509Y-133.951
X192.684Y-155.541
X195.541Y-103.471
X197.446Y-117.441
X199.034Y-153.001
X202.209Y-136.491
X203.796Y-114.901
X206.971Y-174.591
X208.241Y-106.011
X208.559Y-133.951
X211.734Y-155.541
X213.321Y-172.051
X214.591Y-103.471
X216.496Y-117.441
X218.084Y-153.001
X221.259Y-136.491
X222.846Y-114.901
X227.291Y-106.011
X227.609Y-133.951
X230.784Y-155.541
X233.641Y-103.471
X235.547Y-117.441
X237.134Y-153.001
X240.309Y-136.491
X241.897Y-114.901
X246.341Y-106.011
X246.659Y-133.951
X249.834Y-155.541
X252.691Y-103.471
X254.596Y-117.441
X256.184Y-153.001
X259.359Y-136.491
X260.946Y-114.901
X265.391Y-106.011
X265.709Y-133.951
X268.884Y-155.541
X268.884Y-174.591
X271.741Y-103.471
X273.646Y-117.441
X275.234Y-153.001
X275.234Y-172.051
X278.409Y-136.491
X279.996Y-114.901
X284.441Y-106.011
X284.759Y-133.951
X287.934Y-155.541
X290.791Y-103.471
X292.696Y-117.441
X292.696Y-174.591
X294.284Y-153.001
X297.459Y-136.491
X299.046Y-114.901
X299.046Y-172.051
X303.491Y-106.011
X303.809Y-133.951
X309.841Y-103.471
X311.746Y-117.441
X314.127Y-155.541
X318.096Y-114.901
X320.477Y-153.001
X322.541Y-106.011
X328.415Y-136.491
X328.891Y-103.471
X334.765Y-133.951
X335.559Y-117.441
X340.321Y-155.541
X341.591Y-106.011
X341.909Y-114.901
X346.671Y-153.001
X347.941Y-103.471
T0
M30
