solid OpenSCAD_Model
  facet normal -1 0 0
    outer loop
      vertex -0.4 96.05 0
      vertex -0.4 18.5651 26
      vertex -0.4 96.05 26
    endloop
  endfacet
  facet normal -1 0 0
    outer loop
      vertex -0.4 -0.4 0
      vertex -0.4 18.5651 26
      vertex -0.4 96.05 0
    endloop
  endfacet
  facet normal -1 0 0
    outer loop
      vertex -0.4 -0.4 34
      vertex -0.4 18.5651 26
      vertex -0.4 -0.4 0
    endloop
  endfacet
  facet normal -1 0 0
    outer loop
      vertex -0.4 18.5651 26
      vertex -0.4 -0.4 34
      vertex -0.4 18.5651 34
    endloop
  endfacet
  facet normal 0 0 1
    outer loop
      vertex 27.575 18.499 34
      vertex -0.309006 18.499 34
      vertex 27.575 0.4 34
    endloop
  endfacet
  facet normal 0 0 1
    outer loop
      vertex -0.4 -0.4 34
      vertex 27.575 0.4 34
      vertex -0.309006 18.499 34
    endloop
  endfacet
  facet normal 0 0 1
    outer loop
      vertex 27.575 0.4 34
      vertex -0.4 -0.4 34
      vertex 27.766 -0.187783 34
    endloop
  endfacet
  facet normal 0 0 1
    outer loop
      vertex 27.766 -0.187783 34
      vertex -0.4 -0.4 34
      vertex 28.0581 -0.4 34
    endloop
  endfacet
  facet normal 0 0 1
    outer loop
      vertex -0.4 -0.4 34
      vertex -0.309006 18.499 34
      vertex -0.4 18.5651 34
    endloop
  endfacet
  facet normal -0 0 1
    outer loop
      vertex 286.059 18.499 34
      vertex 286.55 -0.4 34
      vertex 286.55 18.8557 34
    endloop
  endfacet
  facet normal 0 0 1
    outer loop
      vertex 239.125 0.4 34
      vertex 286.059 18.499 34
      vertex 239.125 18.499 34
    endloop
  endfacet
  facet normal 0 0 1
    outer loop
      vertex 286.059 18.499 34
      vertex 239.125 0.4 34
      vertex 286.55 -0.4 34
    endloop
  endfacet
  facet normal -0 0 1
    outer loop
      vertex 238.934 -0.187783 34
      vertex 286.55 -0.4 34
      vertex 239.125 0.4 34
    endloop
  endfacet
  facet normal 0 0 1
    outer loop
      vertex 286.55 -0.4 34
      vertex 238.934 -0.187783 34
      vertex 238.642 -0.4 34
    endloop
  endfacet
  facet normal 1 0 0
    outer loop
      vertex 286.55 18.8557 34
      vertex 286.55 -0.4 34
      vertex 286.55 18.8557 26
    endloop
  endfacet
  facet normal 1 -0 0
    outer loop
      vertex 286.55 18.8557 26
      vertex 286.55 96.05 0
      vertex 286.55 96.05 26
    endloop
  endfacet
  facet normal 1 0 0
    outer loop
      vertex 286.55 18.8557 26
      vertex 286.55 -0.4 0
      vertex 286.55 96.05 0
    endloop
  endfacet
  facet normal 1 0 0
    outer loop
      vertex 286.55 -0.4 0
      vertex 286.55 18.8557 26
      vertex 286.55 -0.4 34
    endloop
  endfacet
  facet normal 0 1 -0
    outer loop
      vertex 286.55 96.05 0
      vertex -0.4 96.05 26
      vertex 286.55 96.05 26
    endloop
  endfacet
  facet normal 0 1 0
    outer loop
      vertex -0.4 96.05 26
      vertex 286.55 96.05 0
      vertex -0.4 96.05 0
    endloop
  endfacet
  facet normal 0 0 -1
    outer loop
      vertex -0.4 -0.4 0
      vertex 286.55 96.05 0
      vertex 286.55 -0.4 0
    endloop
  endfacet
  facet normal -0 0 -1
    outer loop
      vertex 286.55 96.05 0
      vertex -0.4 -0.4 0
      vertex -0.4 96.05 0
    endloop
  endfacet
  facet normal 0 -1 0
    outer loop
      vertex -0.4 -0.4 34
      vertex 28.0581 -0.4 26
      vertex 28.0581 -0.4 34
    endloop
  endfacet
  facet normal 0 -1 -0
    outer loop
      vertex 28.0581 -0.4 26
      vertex -0.4 -0.4 0
      vertex 238.642 -0.4 26
    endloop
  endfacet
  facet normal 0 -1 0
    outer loop
      vertex -0.4 -0.4 0
      vertex 28.0581 -0.4 26
      vertex -0.4 -0.4 34
    endloop
  endfacet
  facet normal 0 -1 0
    outer loop
      vertex 238.642 -0.4 26
      vertex 286.55 -0.4 34
      vertex 238.642 -0.4 34
    endloop
  endfacet
  facet normal 0 -1 0
    outer loop
      vertex 238.642 -0.4 26
      vertex 286.55 -0.4 0
      vertex 286.55 -0.4 34
    endloop
  endfacet
  facet normal 0 -1 0
    outer loop
      vertex 286.55 -0.4 0
      vertex 238.642 -0.4 26
      vertex -0.4 -0.4 0
    endloop
  endfacet
  facet normal 0 0 1
    outer loop
      vertex 239.125 18.499 26
      vertex 286.55 18.8557 26
      vertex 286.55 96.05 26
    endloop
  endfacet
  facet normal 0 0 1
    outer loop
      vertex 286.55 18.8557 26
      vertex 239.125 18.499 26
      vertex 286.059 18.499 26
    endloop
  endfacet
  facet normal 0 0 1
    outer loop
      vertex 238.642 -0.4 26
      vertex 239.125 0.4 26
      vertex 239.125 18.499 26
    endloop
  endfacet
  facet normal 0 0 1
    outer loop
      vertex 239.125 0.4 26
      vertex 238.642 -0.4 26
      vertex 238.934 -0.187783 26
    endloop
  endfacet
  facet normal 0 0 1
    outer loop
      vertex 239.125 18.499 26
      vertex 28.0581 -0.4 26
      vertex 238.642 -0.4 26
    endloop
  endfacet
  facet normal -0 0 1
    outer loop
      vertex -0.4 96.05 26
      vertex 239.125 18.499 26
      vertex 286.55 96.05 26
    endloop
  endfacet
  facet normal 0 0 1
    outer loop
      vertex 239.125 18.499 26
      vertex 27.575 18.499 26
      vertex 28.0581 -0.4 26
    endloop
  endfacet
  facet normal -0 0 1
    outer loop
      vertex 27.575 0.4 26
      vertex 28.0581 -0.4 26
      vertex 27.575 18.499 26
    endloop
  endfacet
  facet normal 0 0 1
    outer loop
      vertex 239.125 18.499 26
      vertex -0.4 96.05 26
      vertex 27.575 18.499 26
    endloop
  endfacet
  facet normal -0 0 1
    outer loop
      vertex -0.4 18.5651 26
      vertex 27.575 18.499 26
      vertex -0.4 96.05 26
    endloop
  endfacet
  facet normal 0 0 1
    outer loop
      vertex 27.575 18.499 26
      vertex -0.4 18.5651 26
      vertex -0.309006 18.499 26
    endloop
  endfacet
  facet normal 0 0 1
    outer loop
      vertex 28.0581 -0.4 26
      vertex 27.575 0.4 26
      vertex 27.766 -0.187783 26
    endloop
  endfacet
  facet normal 0.587783 0.809018 -0
    outer loop
      vertex -0.309006 18.499 26
      vertex -0.4 18.5651 34
      vertex -0.309006 18.499 34
    endloop
  endfacet
  facet normal 0.587783 0.809018 0
    outer loop
      vertex -0.4 18.5651 34
      vertex -0.309006 18.499 26
      vertex -0.4 18.5651 26
    endloop
  endfacet
  facet normal 0 1 -0
    outer loop
      vertex 27.575 18.499 26
      vertex -0.309006 18.499 34
      vertex 27.575 18.499 34
    endloop
  endfacet
  facet normal 0 1 0
    outer loop
      vertex -0.309006 18.499 34
      vertex 27.575 18.499 26
      vertex -0.309006 18.499 26
    endloop
  endfacet
  facet normal 1 -0 0
    outer loop
      vertex 27.575 0.4 34
      vertex 27.575 18.499 26
      vertex 27.575 18.499 34
    endloop
  endfacet
  facet normal 1 0 0
    outer loop
      vertex 27.575 18.499 26
      vertex 27.575 0.4 34
      vertex 27.575 0.4 26
    endloop
  endfacet
  facet normal 0.951051 0.309035 0
    outer loop
      vertex 27.766 -0.187783 34
      vertex 27.575 0.4 26
      vertex 27.575 0.4 34
    endloop
  endfacet
  facet normal 0.951051 0.309035 0
    outer loop
      vertex 27.575 0.4 26
      vertex 27.766 -0.187783 34
      vertex 27.766 -0.187783 26
    endloop
  endfacet
  facet normal 0.587779 0.809021 -0
    outer loop
      vertex 28.0581 -0.4 26
      vertex 27.766 -0.187783 34
      vertex 28.0581 -0.4 34
    endloop
  endfacet
  facet normal 0.587779 0.809021 0
    outer loop
      vertex 27.766 -0.187783 34
      vertex 28.0581 -0.4 26
      vertex 27.766 -0.187783 26
    endloop
  endfacet
  facet normal -0.587774 0.809025 0
    outer loop
      vertex 238.934 -0.187783 26
      vertex 238.642 -0.4 34
      vertex 238.934 -0.187783 34
    endloop
  endfacet
  facet normal -0.587774 0.809025 0
    outer loop
      vertex 238.642 -0.4 34
      vertex 238.934 -0.187783 26
      vertex 238.642 -0.4 26
    endloop
  endfacet
  facet normal -0.951051 0.309035 0
    outer loop
      vertex 238.934 -0.187783 26
      vertex 239.125 0.4 34
      vertex 239.125 0.4 26
    endloop
  endfacet
  facet normal -0.951051 0.309035 0
    outer loop
      vertex 239.125 0.4 34
      vertex 238.934 -0.187783 26
      vertex 238.934 -0.187783 34
    endloop
  endfacet
  facet normal -1 0 0
    outer loop
      vertex 239.125 0.4 26
      vertex 239.125 18.499 34
      vertex 239.125 18.499 26
    endloop
  endfacet
  facet normal -1 -0 0
    outer loop
      vertex 239.125 18.499 34
      vertex 239.125 0.4 26
      vertex 239.125 0.4 34
    endloop
  endfacet
  facet normal 0 1 -0
    outer loop
      vertex 286.059 18.499 26
      vertex 239.125 18.499 34
      vertex 286.059 18.499 34
    endloop
  endfacet
  facet normal 0 1 0
    outer loop
      vertex 239.125 18.499 34
      vertex 286.059 18.499 26
      vertex 239.125 18.499 26
    endloop
  endfacet
  facet normal -0.5878 0.809006 0
    outer loop
      vertex 286.55 18.8557 26
      vertex 286.059 18.499 34
      vertex 286.55 18.8557 34
    endloop
  endfacet
  facet normal -0.5878 0.809006 0
    outer loop
      vertex 286.059 18.499 34
      vertex 286.55 18.8557 26
      vertex 286.059 18.499 26
    endloop
  endfacet
endsolid OpenSCAD_Model
