solid OpenSCAD_Model
  facet normal -1 0 0
    outer loop
      vertex -0.5 96.15 0
      vertex -0.5 18.6377 26.5
      vertex -0.5 96.15 26.5
    endloop
  endfacet
  facet normal -1 0 0
    outer loop
      vertex -0.5 -0.5 0
      vertex -0.5 18.6377 26.5
      vertex -0.5 96.15 0
    endloop
  endfacet
  facet normal -1 0 0
    outer loop
      vertex -0.5 -0.5 38
      vertex -0.5 18.6377 26.5
      vertex -0.5 -0.5 0
    endloop
  endfacet
  facet normal -1 0 0
    outer loop
      vertex -0.5 18.6377 26.5
      vertex -0.5 -0.5 38
      vertex -0.5 18.6377 38
    endloop
  endfacet
  facet normal 0 0 1
    outer loop
      vertex 27.575 18.499 38
      vertex -0.309006 18.499 38
      vertex 27.575 0.4 38
    endloop
  endfacet
  facet normal 0 0 1
    outer loop
      vertex -0.5 -0.5 38
      vertex 27.575 0.4 38
      vertex -0.309006 18.499 38
    endloop
  endfacet
  facet normal 0 0 1
    outer loop
      vertex 27.575 0.4 38
      vertex -0.5 -0.5 38
      vertex 27.766 -0.187783 38
    endloop
  endfacet
  facet normal 0 0 1
    outer loop
      vertex 27.766 -0.187783 38
      vertex -0.5 -0.5 38
      vertex 28.1957 -0.5 38
    endloop
  endfacet
  facet normal 0 0 1
    outer loop
      vertex -0.5 -0.5 38
      vertex -0.309006 18.499 38
      vertex -0.5 18.6377 38
    endloop
  endfacet
  facet normal -0 0 1
    outer loop
      vertex 286.559 18.8622 38
      vertex 286.65 -0.5 38
      vertex 286.65 19.1423 38
    endloop
  endfacet
  facet normal -0 0 1
    outer loop
      vertex 286.059 18.499 38
      vertex 286.65 -0.5 38
      vertex 286.559 18.8622 38
    endloop
  endfacet
  facet normal 0 0 1
    outer loop
      vertex 239.125 0.4 38
      vertex 286.059 18.499 38
      vertex 239.125 18.499 38
    endloop
  endfacet
  facet normal 0 0 1
    outer loop
      vertex 286.059 18.499 38
      vertex 239.125 0.4 38
      vertex 286.65 -0.5 38
    endloop
  endfacet
  facet normal -0 0 1
    outer loop
      vertex 238.934 -0.187783 38
      vertex 286.65 -0.5 38
      vertex 239.125 0.4 38
    endloop
  endfacet
  facet normal 0 0 1
    outer loop
      vertex 286.65 -0.5 38
      vertex 238.934 -0.187783 38
      vertex 238.504 -0.5 38
    endloop
  endfacet
  facet normal 0 0 1
    outer loop
      vertex 286.65 96.15 38
      vertex 286.588 96.15 38
      vertex 286.65 95.9577 38
    endloop
  endfacet
  facet normal 1 0 0
    outer loop
      vertex 286.65 19.1423 38
      vertex 286.65 -0.5 38
      vertex 286.65 19.1423 26.5
    endloop
  endfacet
  facet normal 1 0 0
    outer loop
      vertex 286.65 95.9577 26.5
      vertex 286.65 96.15 38
      vertex 286.65 95.9577 38
    endloop
  endfacet
  facet normal 1 0 0
    outer loop
      vertex 286.65 96.15 38
      vertex 286.65 95.9577 26.5
      vertex 286.65 96.15 0
    endloop
  endfacet
  facet normal 1 -0 0
    outer loop
      vertex 286.65 19.1423 26.5
      vertex 286.65 96.15 0
      vertex 286.65 95.9577 26.5
    endloop
  endfacet
  facet normal 1 0 0
    outer loop
      vertex 286.65 19.1423 26.5
      vertex 286.65 -0.5 0
      vertex 286.65 96.15 0
    endloop
  endfacet
  facet normal 1 0 0
    outer loop
      vertex 286.65 -0.5 0
      vertex 286.65 19.1423 26.5
      vertex 286.65 -0.5 38
    endloop
  endfacet
  facet normal 0 1 0
    outer loop
      vertex 286.65 96.15 38
      vertex 286.588 96.15 26.5
      vertex 286.588 96.15 38
    endloop
  endfacet
  facet normal 0 1 -0
    outer loop
      vertex 286.65 96.15 0
      vertex 286.588 96.15 26.5
      vertex 286.65 96.15 38
    endloop
  endfacet
  facet normal 0 1 0
    outer loop
      vertex 286.65 96.15 0
      vertex -0.5 96.15 26.5
      vertex 286.588 96.15 26.5
    endloop
  endfacet
  facet normal 0 1 0
    outer loop
      vertex -0.5 96.15 26.5
      vertex 286.65 96.15 0
      vertex -0.5 96.15 0
    endloop
  endfacet
  facet normal 0 0 -1
    outer loop
      vertex -0.5 -0.5 0
      vertex 286.65 96.15 0
      vertex 286.65 -0.5 0
    endloop
  endfacet
  facet normal -0 0 -1
    outer loop
      vertex 286.65 96.15 0
      vertex -0.5 -0.5 0
      vertex -0.5 96.15 0
    endloop
  endfacet
  facet normal 0 -1 0
    outer loop
      vertex -0.5 -0.5 38
      vertex 28.1957 -0.5 26.5
      vertex 28.1957 -0.5 38
    endloop
  endfacet
  facet normal 0 -1 -0
    outer loop
      vertex 28.1957 -0.5 26.5
      vertex -0.5 -0.5 0
      vertex 238.504 -0.5 26.5
    endloop
  endfacet
  facet normal 0 -1 0
    outer loop
      vertex -0.5 -0.5 0
      vertex 28.1957 -0.5 26.5
      vertex -0.5 -0.5 38
    endloop
  endfacet
  facet normal 0 -1 0
    outer loop
      vertex 238.504 -0.5 26.5
      vertex 286.65 -0.5 38
      vertex 238.504 -0.5 38
    endloop
  endfacet
  facet normal 0 -1 0
    outer loop
      vertex 238.504 -0.5 26.5
      vertex 286.65 -0.5 0
      vertex 286.65 -0.5 38
    endloop
  endfacet
  facet normal 0 -1 0
    outer loop
      vertex 286.65 -0.5 0
      vertex 238.504 -0.5 26.5
      vertex -0.5 -0.5 0
    endloop
  endfacet
  facet normal 0 0 1
    outer loop
      vertex 239.125 18.499 26.5
      vertex 286.65 95.9577 26.5
      vertex 286.588 96.15 26.5
    endloop
  endfacet
  facet normal 0 0 1
    outer loop
      vertex 286.65 95.9577 26.5
      vertex 239.125 18.499 26.5
      vertex 286.65 19.1423 26.5
    endloop
  endfacet
  facet normal 0 -0 1
    outer loop
      vertex 286.059 18.499 26.5
      vertex 286.65 19.1423 26.5
      vertex 239.125 18.499 26.5
    endloop
  endfacet
  facet normal 0 0 1
    outer loop
      vertex 286.65 19.1423 26.5
      vertex 286.059 18.499 26.5
      vertex 286.559 18.8622 26.5
    endloop
  endfacet
  facet normal 0 0 1
    outer loop
      vertex 238.504 -0.5 26.5
      vertex 239.125 0.4 26.5
      vertex 239.125 18.499 26.5
    endloop
  endfacet
  facet normal 0 0 1
    outer loop
      vertex 239.125 0.4 26.5
      vertex 238.504 -0.5 26.5
      vertex 238.934 -0.187783 26.5
    endloop
  endfacet
  facet normal 0 0 1
    outer loop
      vertex 239.125 18.499 26.5
      vertex 28.1957 -0.5 26.5
      vertex 238.504 -0.5 26.5
    endloop
  endfacet
  facet normal -0 0 1
    outer loop
      vertex -0.5 96.15 26.5
      vertex 239.125 18.499 26.5
      vertex 286.588 96.15 26.5
    endloop
  endfacet
  facet normal 0 0 1
    outer loop
      vertex 239.125 18.499 26.5
      vertex 27.575 18.499 26.5
      vertex 28.1957 -0.5 26.5
    endloop
  endfacet
  facet normal -0 0 1
    outer loop
      vertex 27.575 0.4 26.5
      vertex 28.1957 -0.5 26.5
      vertex 27.575 18.499 26.5
    endloop
  endfacet
  facet normal 0 0 1
    outer loop
      vertex 239.125 18.499 26.5
      vertex -0.5 96.15 26.5
      vertex 27.575 18.499 26.5
    endloop
  endfacet
  facet normal -0 0 1
    outer loop
      vertex -0.5 18.6377 26.5
      vertex 27.575 18.499 26.5
      vertex -0.5 96.15 26.5
    endloop
  endfacet
  facet normal 0 0 1
    outer loop
      vertex 27.575 18.499 26.5
      vertex -0.5 18.6377 26.5
      vertex -0.309006 18.499 26.5
    endloop
  endfacet
  facet normal 0 0 1
    outer loop
      vertex 28.1957 -0.5 26.5
      vertex 27.575 0.4 26.5
      vertex 27.766 -0.187783 26.5
    endloop
  endfacet
  facet normal -0.951072 0.30897 0
    outer loop
      vertex 286.559 18.8622 26.5
      vertex 286.65 19.1423 38
      vertex 286.65 19.1423 26.5
    endloop
  endfacet
  facet normal -0.951072 0.30897 0
    outer loop
      vertex 286.65 19.1423 38
      vertex 286.559 18.8622 26.5
      vertex 286.559 18.8622 38
    endloop
  endfacet
  facet normal -0.951053 -0.309029 0
    outer loop
      vertex 286.65 95.9577 26.5
      vertex 286.588 96.15 38
      vertex 286.588 96.15 26.5
    endloop
  endfacet
  facet normal -0.951053 -0.309029 0
    outer loop
      vertex 286.588 96.15 38
      vertex 286.65 95.9577 26.5
      vertex 286.65 95.9577 38
    endloop
  endfacet
  facet normal 0.58778 0.809021 -0
    outer loop
      vertex -0.309006 18.499 26.5
      vertex -0.5 18.6377 38
      vertex -0.309006 18.499 38
    endloop
  endfacet
  facet normal 0.58778 0.809021 0
    outer loop
      vertex -0.5 18.6377 38
      vertex -0.309006 18.499 26.5
      vertex -0.5 18.6377 26.5
    endloop
  endfacet
  facet normal 0 1 -0
    outer loop
      vertex 27.575 18.499 26.5
      vertex -0.309006 18.499 38
      vertex 27.575 18.499 38
    endloop
  endfacet
  facet normal 0 1 0
    outer loop
      vertex -0.309006 18.499 38
      vertex 27.575 18.499 26.5
      vertex -0.309006 18.499 26.5
    endloop
  endfacet
  facet normal 1 -0 0
    outer loop
      vertex 27.575 0.4 38
      vertex 27.575 18.499 26.5
      vertex 27.575 18.499 38
    endloop
  endfacet
  facet normal 1 0 0
    outer loop
      vertex 27.575 18.499 26.5
      vertex 27.575 0.4 38
      vertex 27.575 0.4 26.5
    endloop
  endfacet
  facet normal 0.951051 0.309035 0
    outer loop
      vertex 27.766 -0.187783 38
      vertex 27.575 0.4 26.5
      vertex 27.575 0.4 38
    endloop
  endfacet
  facet normal 0.951051 0.309035 0
    outer loop
      vertex 27.575 0.4 26.5
      vertex 27.766 -0.187783 38
      vertex 27.766 -0.187783 26.5
    endloop
  endfacet
  facet normal 0.58778 0.809021 -0
    outer loop
      vertex 28.1957 -0.5 26.5
      vertex 27.766 -0.187783 38
      vertex 28.1957 -0.5 38
    endloop
  endfacet
  facet normal 0.58778 0.809021 0
    outer loop
      vertex 27.766 -0.187783 38
      vertex 28.1957 -0.5 26.5
      vertex 27.766 -0.187783 26.5
    endloop
  endfacet
  facet normal -0.587782 0.809019 0
    outer loop
      vertex 238.934 -0.187783 26.5
      vertex 238.504 -0.5 38
      vertex 238.934 -0.187783 38
    endloop
  endfacet
  facet normal -0.587782 0.809019 0
    outer loop
      vertex 238.504 -0.5 38
      vertex 238.934 -0.187783 26.5
      vertex 238.504 -0.5 26.5
    endloop
  endfacet
  facet normal -0.951051 0.309035 0
    outer loop
      vertex 238.934 -0.187783 26.5
      vertex 239.125 0.4 38
      vertex 239.125 0.4 26.5
    endloop
  endfacet
  facet normal -0.951051 0.309035 0
    outer loop
      vertex 239.125 0.4 38
      vertex 238.934 -0.187783 26.5
      vertex 238.934 -0.187783 38
    endloop
  endfacet
  facet normal -1 0 0
    outer loop
      vertex 239.125 0.4 26.5
      vertex 239.125 18.499 38
      vertex 239.125 18.499 26.5
    endloop
  endfacet
  facet normal -1 -0 0
    outer loop
      vertex 239.125 18.499 38
      vertex 239.125 0.4 26.5
      vertex 239.125 0.4 38
    endloop
  endfacet
  facet normal 0 1 -0
    outer loop
      vertex 286.059 18.499 26.5
      vertex 239.125 18.499 38
      vertex 286.059 18.499 38
    endloop
  endfacet
  facet normal 0 1 0
    outer loop
      vertex 239.125 18.499 38
      vertex 286.059 18.499 26.5
      vertex 239.125 18.499 26.5
    endloop
  endfacet
  facet normal -0.58778 0.809021 0
    outer loop
      vertex 286.559 18.8622 26.5
      vertex 286.059 18.499 38
      vertex 286.559 18.8622 38
    endloop
  endfacet
  facet normal -0.58778 0.809021 0
    outer loop
      vertex 286.059 18.499 38
      vertex 286.559 18.8622 26.5
      vertex 286.059 18.499 26.5
    endloop
  endfacet
endsolid OpenSCAD_Model
